<?xml version="1.0" standalone="no"?>
<!DOCTYPE svg PUBLIC "-//W3C//DTD SVG 20010904//EN"
 "http://www.w3.org/TR/2001/REC-SVG-20010904/DTD/svg10.dtd">
<svg version="1.0" xmlns="http://www.w3.org/2000/svg"
 width="781.000000pt" height="127.000000pt" viewBox="0 0 781.000000 127.000000"
 preserveAspectRatio="xMidYMid meet">

<g transform="translate(0.000000,127.000000) scale(0.100000,-0.100000)"
fill="#000000" stroke="none">
<path d="M4498 1202 c-2 -4 -2 -226 0 -494 l3 -488 189 0 189 0 4 158 3 157 2
-157 2 -158 186 0 c178 0 186 1 191 20 5 20 5 20 39 -1 49 -30 131 -36 209
-14 60 16 68 16 105 1 24 -9 69 -16 110 -16 l70 0 0 -85 0 -85 190 0 190 0 0
85 0 85 30 0 c61 0 132 23 175 56 l45 34 0 -130 0 -130 188 2 187 3 3 80 3 81
70 11 c47 7 87 21 121 42 28 18 52 30 53 29 1 -2 8 -59 16 -128 l14 -125 160
0 c154 1 162 2 212 27 98 52 115 93 228 554 52 212 95 392 95 400 0 12 -61 15
-417 16 -230 0 -454 1 -498 2 -44 0 -160 0 -257 -2 l-178 -2 0 -30 c0 -33 -11
-38 -30 -15 -6 8 -37 24 -67 35 -50 19 -70 20 -212 15 -86 -3 -193 -8 -238
-11 l-83 -6 0 -28 0 -29 -47 29 c-89 55 -216 62 -400 21 -70 -15 -83 -15 -88
-3 -3 7 -5 56 -5 108 l0 94 -379 0 c-209 0 -381 -4 -383 -8z m294 -234 l3
-163 85 0 85 0 3 163 2 162 105 0 105 0 0 -349 c0 -191 3 -376 6 -410 l7 -61
-112 0 -111 0 0 155 0 155 -85 0 -84 0 -3 -157 -3 -158 -107 -3 -108 -3 0 416
0 415 105 0 105 0 2 -162z m95 -25 c-2 -32 -3 -8 -3 52 0 61 1 87 3 58 2 -29
2 -78 0 -110z m2071 -10 c43 -32 61 -65 77 -138 28 -134 14 -333 -28 -409 -37
-65 -67 -81 -155 -81 -42 0 -87 4 -99 8 -22 8 -22 7 -25 -90 l-3 -98 -107 -3
-108 -3 0 411 0 410 85 0 c75 0 85 -2 95 -21 11 -19 13 -19 29 -5 54 49 185
60 239 19z m-1279 1 c71 -28 75 -43 81 -269 5 -196 6 -200 28 -210 24 -10 28
-42 16 -117 -6 -33 -9 -36 -48 -42 -57 -8 -117 8 -143 38 -27 32 -34 32 -63 1
-47 -50 -174 -53 -226 -4 -55 52 -71 189 -29 252 24 37 104 74 191 88 71 12
74 14 74 40 0 35 -24 59 -58 59 -15 0 -62 -9 -105 -19 -42 -10 -79 -16 -81
-12 -9 14 -28 162 -22 168 3 4 41 14 84 24 101 23 248 24 301 3z m640 -2 c49
-25 69 -57 87 -142 20 -95 14 -301 -11 -372 -38 -108 -157 -152 -277 -103 -16
7 -18 -2 -18 -94 l0 -101 -110 0 -110 0 0 410 0 410 90 0 c72 0 90 -3 90 -14
0 -26 18 -27 56 -1 30 20 49 25 103 25 43 0 78 -6 100 -18z m1005 1 c2 -10 17
-99 32 -198 24 -166 35 -207 49 -193 3 2 20 95 37 206 l33 202 103 0 c101 0
102 0 97 -22 -47 -200 -149 -617 -162 -662 -21 -73 -71 -129 -128 -145 -45
-12 -221 -15 -228 -3 -3 4 -8 40 -12 80 l-7 72 33 0 c51 0 78 10 84 31 3 10
-30 158 -74 329 -45 172 -81 314 -81 316 0 2 49 4 109 4 96 0 110 -2 115 -17z
m-174 -500 c7 -32 15 -64 17 -70 4 -9 -7 -13 -37 -13 -39 0 -42 2 -35 23 4 12
12 43 18 70 6 26 14 47 17 47 4 0 13 -26 20 -57z"/>
<path d="M6738 769 c-16 -9 -18 -27 -18 -147 0 -152 4 -162 57 -162 49 0 58
25 57 160 0 130 -10 160 -52 160 -15 0 -35 -5 -44 -11z"/>
<path d="M5508 559 c-34 -13 -52 -60 -36 -94 9 -19 19 -25 45 -25 27 0 35 5
44 27 14 38 8 97 -11 100 -8 1 -27 -3 -42 -8z"/>
<path d="M6108 769 c-16 -9 -18 -27 -18 -147 0 -75 4 -143 8 -149 10 -16 63
-26 80 -15 16 11 31 72 32 129 0 34 -5 46 -24 58 -29 19 -46 62 -35 90 17 44
-1 59 -43 34z"/>
</g>
</svg>
