<?xml version="1.0" standalone="no"?>
<!DOCTYPE svg PUBLIC "-//W3C//DTD SVG 20010904//EN"
 "http://www.w3.org/TR/2001/REC-SVG-20010904/DTD/svg10.dtd">
<svg version="1.0" xmlns="http://www.w3.org/2000/svg"
 width="792.000000pt" height="152.000000pt" viewBox="0 0 792.000000 152.000000"
 preserveAspectRatio="xMidYMid meet">

<g transform="translate(0.000000,152.000000) scale(0.100000,-0.100000)"
fill="#fff" stroke="none">
<path d="M2345 1305 c-131 -29 -224 -79 -320 -174 -107 -106 -158 -226 -157
-371 1 -218 150 -422 370 -509 126 -50 167 -52 959 -49 670 3 744 5 798 21
287 84 474 325 451 579 -17 191 -138 359 -321 448 -145 71 -137 70 -973 69
-580 0 -760 -4 -807 -14z m340 -152 c161 -50 285 -187 304 -337 22 -176 -71
-331 -249 -414 -66 -31 -87 -36 -177 -40 -88 -4 -113 -1 -173 18 -229 74 -361
297 -293 496 39 116 107 190 228 250 109 54 241 64 360 27z"/>
<path d="M4559 1181 l-24 -19 0 -371 c0 -430 -6 -406 96 -406 93 0 99 12 99
186 l0 139 144 0 143 0 5 -137 c3 -76 9 -145 12 -155 18 -41 126 -49 167 -12
18 16 19 35 19 385 0 407 2 392 -65 405 -44 8 -99 -2 -115 -22 -9 -9 -15 -65
-18 -159 l-5 -145 -143 0 -144 0 0 140 c0 136 -1 142 -25 165 -31 32 -110 35
-146 6z"/>
<path d="M1390 1027 c-73 -17 -109 -37 -167 -94 -76 -75 -98 -128 -98 -243 0
-90 2 -98 36 -160 41 -74 132 -152 202 -171 67 -18 164 -14 232 11 71 27 148
99 185 175 35 72 39 190 10 267 -59 157 -236 252 -400 215z m140 -232 c53 -27
75 -100 47 -155 -18 -35 -74 -70 -114 -70 -94 0 -151 96 -108 180 29 56 113
77 175 45z"/>
<path d="M91 1011 c-29 -29 -33 -79 -29 -354 3 -248 3 -249 27 -268 33 -27
129 -27 162 0 23 18 24 26 30 189 4 136 9 175 22 196 32 48 96 46 122 -4 12
-22 15 -67 15 -193 0 -117 4 -168 13 -181 18 -25 90 -39 137 -26 64 17 70 34
70 206 0 84 5 165 11 183 11 32 43 48 84 42 46 -6 50 -22 55 -212 l5 -181 29
-25 c26 -22 37 -25 89 -21 98 7 99 9 95 267 -3 213 -3 217 -31 272 -39 80
-116 129 -202 129 -43 0 -131 -46 -156 -82 l-22 -30 -17 27 c-31 47 -85 78
-145 83 -72 6 -95 -1 -138 -43 -30 -29 -37 -32 -37 -17 0 10 -9 28 -20 40 -29
30 -140 32 -169 3z"/>
<path d="M7270 959 c-43 -25 -60 -46 -60 -73 0 -11 54 -111 120 -223 l121
-202 -51 -116 c-63 -141 -64 -169 -5 -202 52 -30 99 -30 119 -1 9 12 88 185
177 385 156 353 161 364 145 388 -17 26 -54 48 -98 59 -42 10 -70 -25 -129
-159 -29 -66 -56 -124 -59 -128 -4 -5 -44 55 -90 133 -100 171 -116 183 -190
139z"/>
<path d="M5519 961 c-88 -18 -187 -109 -210 -194 -37 -138 20 -285 140 -355
61 -36 148 -38 203 -5 l38 22 24 -24 c41 -41 147 -31 161 16 11 34 7 497 -5
518 -11 22 -75 36 -120 26 -17 -4 -38 -18 -47 -31 -16 -25 -16 -25 -37 -5 -18
16 -90 43 -106 40 -3 -1 -21 -4 -41 -8z m135 -222 c17 -19 26 -43 26 -64 0
-49 -42 -95 -87 -95 -45 0 -69 14 -89 52 -34 66 11 138 86 138 30 0 44 -6 64
-31z"/>
<path d="M6011 957 c-15 -7 -28 -26 -33 -45 -5 -18 -7 -192 -6 -386 3 -413 -1
-396 98 -396 86 0 90 8 90 173 0 75 3 137 7 137 3 0 15 -8 25 -17 13 -11 41
-19 83 -21 78 -5 135 19 190 80 107 118 110 274 9 387 -91 101 -205 126 -286
61 l-25 -19 -11 23 c-15 34 -94 47 -141 23z m324 -219 c22 -26 26 -39 21 -67
-12 -80 -110 -110 -160 -50 -29 35 -33 67 -11 109 17 34 27 38 82 39 35 1 45
-4 68 -31z"/>
<path d="M6645 946 l-26 -26 3 -381 c3 -437 -3 -409 99 -409 84 0 89 11 89
176 l0 132 37 -19 c113 -58 256 8 324 148 32 66 30 166 -5 237 -55 112 -173
180 -269 155 -25 -6 -53 -19 -62 -29 -16 -18 -18 -18 -39 7 -17 19 -35 27 -73
30 -46 5 -55 2 -78 -21z m316 -187 c30 -16 48 -66 38 -103 -29 -102 -179 -81
-179 24 0 71 76 114 141 79z"/>
</g>
</svg>
